<?xml version="1.0" encoding="UTF-8"?>
<svg width="50pt" height="50pt" version="1.1" viewBox="0 0 700 700" xmlns="http://www.w3.org/2000/svg">
 <g>
  <path d="m376.43 317.07h-180.27l61.992-61.992c6.0469-7 5.9375-17.414-0.16797-24.527-6.7773-7.7266-18.594-8.6211-26.488-1.7344l-93.91 93.969c-7.2227 7.3359-7.2227 18.93 0 26.375l93.969 93.969c6.9414 5.9922 17.359 6.0469 24.469 0.054688 7.8945-6.6641 8.8477-18.48 2.1836-26.488l-62.047-61.992h180.27c10.414 0 18.816-8.3984 18.816-18.816-0.003906-10.414-8.4023-18.816-18.816-18.816z"/>
  <path d="m562.41 210.89-93.91-93.965c-7-6.0508-17.418-6.1055-24.527-0.11328-7.8398 6.6641-8.8477 18.48-2.1836 26.488l61.992 61.992h-180.21c-10.414 0-18.816 8.3984-18.816 18.816 0 10.414 8.3984 18.816 18.816 18.816h180.27l-62.047 61.992c-5.9922 7-5.8828 17.414 0.22266 24.527 6.7773 7.7852 18.594 8.625 26.488 1.7344l93.969-93.969c7.168-7.3359 7.168-18.926-0.058594-26.32z"/>
 </g>
</svg>
